<svg width="110" height="118" viewBox="0 0 110 118" fill="none" xmlns="http://www.w3.org/2000/svg">
<g filter="url(#filter0_d)">
<path d="M51 17.3094C53.4752 15.8803 56.5248 15.8803 59 17.3094L85.641 32.6906C88.1162 34.1197 89.641 36.7607 89.641 39.6188V70.3812C89.641 73.2393 88.1162 75.8803 85.641 77.3094L59 92.6906C56.5248 94.1197 53.4752 94.1197 51 92.6906L24.359 77.3094C21.8838 75.8803 20.359 73.2393 20.359 70.3812V39.6188C20.359 36.7607 21.8838 34.1197 24.359 32.6906L51 17.3094Z" fill="white"/>
</g>
<path d="M58.9671 68.0446L58.1792 65.5956C57.997 65.0255 57.3898 64.7151 56.8196 64.8973C56.2495 65.0795 55.9391 65.6901 56.1213 66.2568L56.2641 66.2109M58.9671 68.0446L56.2641 66.2109M58.9671 68.0446L58.9046 68.1243L59.0226 68.2169L59.1654 68.1709L59.1343 68.0745L58.9671 68.0446ZM56.2641 66.2109L57.7282 70.7653L57.7284 70.7656C57.8325 71.0926 58.1104 71.3338 58.4472 71.3953C58.5058 71.4045 58.5611 71.4101 58.6144 71.4101C58.8953 71.4101 59.1658 71.2796 59.3433 71.0557C59.3434 71.0556 59.3435 71.0555 59.3436 71.0554L61.2189 68.6707L61.2814 68.5912L61.3785 68.6193L64.2922 69.4624C64.2923 69.4624 64.2925 69.4625 64.2927 69.4625C64.6254 69.5557 64.9826 69.4618 65.2198 69.2159C65.4582 68.9688 65.5425 68.6114 65.438 68.283C65.438 68.2829 65.4379 68.2828 65.4379 68.2827L63.677 62.8077L63.6769 62.8075C63.5202 62.3169 62.9945 62.0493 62.5062 62.2063L62.5059 62.2064C62.0153 62.3631 61.7478 62.8888 61.9047 63.3771L63.045 66.9193L63.1315 67.188L62.8604 67.1094L61.1975 66.627C60.8354 66.5227 60.4459 66.6498 60.2097 66.9469C60.2096 66.947 60.2096 66.9471 60.2095 66.9472L59.1406 68.3095L58.9663 68.5316L58.8798 68.2628L58.0364 65.6416L58.0363 65.6413C57.8795 65.1507 57.3571 64.883 56.8653 65.0402C56.3747 65.1969 56.1071 65.7226 56.2641 66.2109C56.2641 66.2109 56.2641 66.2109 56.2641 66.2109ZM45.678 67.1127L47.3409 66.6304C47.341 66.6304 47.341 66.6304 47.3411 66.6303C47.7045 66.5257 48.0962 66.651 48.3279 66.9494L48.3284 66.9499L49.3978 68.3129L49.5721 68.535L49.6586 68.2662L50.502 65.6449L50.502 65.6449C50.6589 65.1569 51.1817 64.8866 51.673 65.0435C52.1609 65.2004 52.4311 65.7232 52.2743 66.2144C52.2743 66.2145 52.2742 66.2145 52.2742 66.2146L50.8102 70.7686L50.8101 70.769C50.7063 71.0948 50.43 71.3354 50.0949 71.398C50.0316 71.4047 49.9773 71.4101 49.9274 71.4101C49.6457 71.4101 49.3754 71.2824 49.1949 71.0554C49.1948 71.0553 49.1948 71.0553 49.1947 71.0552L47.3195 68.6707L47.257 68.5912L47.1599 68.6193L44.2451 69.4627L44.2451 69.4627C43.9146 69.5584 43.5602 69.4631 43.3183 69.2156C43.0801 68.9685 42.9959 68.6112 43.1004 68.2829C43.1005 68.2828 43.1005 68.2827 43.1005 68.2827L44.8648 62.8044L44.8648 62.8043C45.0216 62.3164 45.5445 62.046 46.0358 62.203C46.5236 62.3598 46.7939 62.8826 46.637 63.3739C46.637 63.3739 46.637 63.374 46.637 63.374L45.4934 66.9227L45.4069 67.1914L45.678 67.1127Z" fill="#2483FF" stroke="white" stroke-width="0.3"/>
<ellipse cx="54.2728" cy="53.2" rx="13.1273" ry="13.1273" stroke="#2483FF" stroke-width="2.3"/>
<path d="M67.4003 49.0542C68.4367 58.3822 61.5229 66.3274 54.2729 66.3274C47.0229 66.3274 40.4547 59.4185 41.1458 49.0542C41.1458 49.0542 47.0231 49.0545 54.273 49.0545C61.523 49.0545 67.4003 49.0542 67.4003 49.0542Z" fill="url(#paint0_linear)" fill-opacity="0.8"/>
<ellipse cx="54.2729" cy="53.1996" rx="4.83636" ry="4.83636" stroke="#03A87B" stroke-width="2.3"/>
<path opacity="0.1" d="M51.9954 21.7105C53.6971 20.728 55.7937 20.728 57.4954 21.7105L81.9795 35.8464C83.6812 36.8289 84.7295 38.6446 84.7295 40.6095V68.8813C84.7295 70.8463 83.6812 72.662 81.9795 73.6445L57.4954 87.7803C55.7937 88.7628 53.6971 88.7628 51.9954 87.7803L27.5113 73.6445C25.8096 72.662 24.7613 70.8463 24.7613 68.8813V40.6095C24.7613 38.6446 25.8096 36.8289 27.5113 35.8464L51.9954 21.7105Z" stroke="#2483FF"/>
<defs>
<filter id="filter0_d" x="0.358887" y="0.237793" width="109.282" height="117.525" filterUnits="userSpaceOnUse" color-interpolation-filters="sRGB">
<feFlood flood-opacity="0" result="BackgroundImageFix"/>
<feColorMatrix in="SourceAlpha" type="matrix" values="0 0 0 0 0 0 0 0 0 0 0 0 0 0 0 0 0 0 127 0"/>
<feOffset dy="4"/>
<feGaussianBlur stdDeviation="10"/>
<feColorMatrix type="matrix" values="0 0 0 0 0.874271 0 0 0 0 0.912544 0 0 0 0 0.9625 0 0 0 1 0"/>
<feBlend mode="normal" in2="BackgroundImageFix" result="effect1_dropShadow"/>
<feBlend mode="normal" in="SourceGraphic" in2="effect1_dropShadow" result="shape"/>
</filter>
<linearGradient id="paint0_linear" x1="54.2729" y1="40.0731" x2="54.2729" y2="66.3276" gradientUnits="userSpaceOnUse">
<stop stop-color="#2483FF" stop-opacity="0.5"/>
<stop offset="1" stop-color="#2483FF" stop-opacity="0"/>
</linearGradient>
</defs>
</svg>
